<svg xmlns="http://www.w3.org/2000/svg" width="35" height="25" viewBox="0 0 35 25">
  <g id="コメントアイコン7" transform="translate(0 -61.18)">
    <path id="パス_51" data-name="パス 51" d="M115.522,200.464a1.837,1.837,0,1,0,1.836,1.837A1.838,1.838,0,0,0,115.522,200.464Z" transform="translate(-105.858 -130.356)" fill="#5d5d5d"/>
    <path id="パス_52" data-name="パス 52" d="M229.367,200.464A1.837,1.837,0,1,0,231.2,202.3,1.837,1.837,0,0,0,229.367,200.464Z" transform="translate(-211.868 -130.356)" fill="#5d5d5d"/>
    <path id="パス_53" data-name="パス 53" d="M343.2,200.464a1.837,1.837,0,1,0,1.837,1.837A1.837,1.837,0,0,0,343.2,200.464Z" transform="translate(-317.862 -130.356)" fill="#5d5d5d"/>
    <path id="パス_54" data-name="パス 54" d="M35,71.755a10.363,10.363,0,0,0-3.324-7.474,11.517,11.517,0,0,0-7.954-3.1H11.278C5.06,61.181,0,65.929,0,71.764S5.06,82.348,11.278,82.35H21.524a.355.355,0,0,1,.293.119.419.419,0,0,1,.042.369,4.452,4.452,0,0,1-.552,1.011c-.249.385-.478.709-.527.778-.347.489-.466.9-.337,1.166.1.2.342.321.725.364a4.744,4.744,0,0,0,.479.023c.088,0,.176,0,.251-.008a15.9,15.9,0,0,0,3.12-.535,14.143,14.143,0,0,0,6.551-3.889A14.01,14.01,0,0,0,35,71.99Zm-3.49,6.618A10.7,10.7,0,0,1,26.3,83.107a13.731,13.731,0,0,1-2.518.84L23.554,84l.148-.3a3.387,3.387,0,0,0,.15-.331,2.463,2.463,0,0,0,.167-.823,1.838,1.838,0,0,0-.19-.81,2.191,2.191,0,0,0-1.046-.985,3.973,3.973,0,0,0-1.716-.333h-9.79A9.478,9.478,0,0,1,4.76,77.883a8.28,8.28,0,0,1,0-12.236,9.48,9.48,0,0,1,6.518-2.534H23.72a9.43,9.43,0,0,1,6.5,2.533,8.51,8.51,0,0,1,2.724,6.128v.216A13.445,13.445,0,0,1,31.508,78.372Z" fill="#5d5d5d"/>
  </g>
</svg>
