<svg xmlns="http://www.w3.org/2000/svg" width="30" height="25" viewBox="0 0 30 25">
  <g id="目的地アイコン3" transform="translate(0.003 -35.624)">
    <path id="パス_60" data-name="パス 60" d="M226.562,43.326a.373.373,0,0,0-.019-.383l-2.109-3.162a.376.376,0,0,1,0-.414l2.109-3.162a.373.373,0,0,0-.31-.581H216.4v7.9h9.835A.377.377,0,0,0,226.562,43.326Z" transform="translate(-203.526)" fill="#5d5d5d"/>
    <path id="パス_61" data-name="パス 61" d="M29.986,267.065l-.51-1.089L24.17,254.624H12.517v1.8h7.1l-6.116,7.45-8.37-3.427,1.88-4.023H8.5v-1.8H5.823L.009,267.065a.126.126,0,0,0,.009.122.134.134,0,0,0,.111.059H29.866a.134.134,0,0,0,.111-.059A.126.126,0,0,0,29.986,267.065ZM20.8,256.42h2.176l2.392,5.118-6.395-2.894ZM2.8,265.449l1.957-4.188,10.228,4.188Zm14.567,0-2.973-1.217,3.993-4.865,7.575,3.427,1.241,2.655H17.362Z" transform="translate(0 -206.621)" fill="#5d5d5d"/>
    <rect id="長方形_19" data-name="長方形 19" width="2.106" height="16.852" transform="translate(9.446 35.624)" fill="#5d5d5d"/>
  </g>
</svg>
