<svg xmlns="http://www.w3.org/2000/svg" width="105" height="85" viewBox="0 0 105 85">
  <g id="名刺_会員証のアイコン素材" data-name="名刺・会員証のアイコン素材" transform="translate(0 -47.7)">
    <path id="パス_33" data-name="パス 33" d="M0,47.7v85H105v-85Zm10.435,74.618V58.082H94.565v64.236H10.435Z" transform="translate(0 0)" fill="#2e80cb"/>
    <rect id="長方形_3" data-name="長方形 3" width="36.014" height="7.075" transform="translate(49.276 70.428)" fill="#2e80cb"/>
    <rect id="長方形_4" data-name="長方形 4" width="36.014" height="7.075" transform="translate(49.276 86.663)" fill="#2e80cb"/>
    <rect id="長方形_5" data-name="長方形 5" width="66.413" height="7.075" transform="translate(19.293 102.897)" fill="#2e80cb"/>
    <path id="パス_34" data-name="パス 34" d="M125,149.17A7.008,7.008,0,1,0,118,142.162,7.016,7.016,0,0,0,125,149.17Z" transform="translate(-93.746 -69.579)" fill="#2e80cb"/>
    <path id="パス_35" data-name="パス 35" d="M129.631,218.83a9.412,9.412,0,0,0-4.271-7.329l-.076-.046h-6.938l-.076.046A9.412,9.412,0,0,0,114,218.83V224h15.632v-5.17Z" transform="translate(-90.563 -130.292)" fill="#2e80cb"/>
  </g>
</svg>
