<svg xmlns="http://www.w3.org/2000/svg" width="75" height="85" viewBox="0 0 75 85">
  <g id="書類_メモのアイコン素材_7" data-name="書類・メモのアイコン素材 7" transform="translate(-28.672)">
    <path id="パス_28" data-name="パス 28" d="M28.672,0V85h75V0ZM97.054,78.34H35.29V6.66H97.055V78.34Z" fill="#2e80cb"/>
    <path id="パス_29" data-name="パス 29" d="M101.8,76.718a4.327,4.327,0,1,0,4.327,4.328A4.328,4.328,0,0,0,101.8,76.718Z" transform="translate(-57.48 -63.894)" fill="#2e80cb"/>
    <circle id="楕円形_2" data-name="楕円形 2" cx="4.328" cy="4.328" r="4.328" transform="translate(39.996 29.688)" fill="#2e80cb"/>
    <circle id="楕円形_3" data-name="楕円形 3" cx="4.328" cy="4.328" r="4.328" transform="translate(39.996 46.656)" fill="#2e80cb"/>
    <path id="パス_30" data-name="パス 30" d="M101.8,383.73a4.327,4.327,0,1,0,4.327,4.327A4.327,4.327,0,0,0,101.8,383.73Z" transform="translate(-57.48 -320.209)" fill="#2e80cb"/>
    <path id="パス_31" data-name="パス 31" d="M220.622,112.121V84.063h0V84.05H182.454v31.726h38.168Zm-3.368-24.7v24.99H185.822V87.418Z" transform="translate(-128.866 -70.189)" fill="#2e80cb"/>
    <path id="パス_32" data-name="パス 32" d="M214.55,322.227h6.072v-3.551h0v-.013h-1.366l-.241-.544,0,0h0l-.005-.012-1.268.561H182.454v3.564h14.227l12.979.012-23.826,10.545h-3.379v3.565h38.168V332.8h0v-.014H205.084l-14.36-.012Z" transform="translate(-128.866 -265.454)" fill="#2e80cb"/>
  </g>
</svg>
