<svg xmlns="http://www.w3.org/2000/svg" width="45" height="45" viewBox="0 0 45 45">
  <path id="times-circle-solid" d="M30.5,8A22.5,22.5,0,1,0,53,30.5,22.5,22.5,0,0,0,30.5,8ZM41.532,36.406a1.09,1.09,0,0,1,0,1.542L37.94,41.532a1.09,1.09,0,0,1-1.542,0l-5.9-5.952-5.906,5.952a1.09,1.09,0,0,1-1.542,0L19.468,37.94a1.09,1.09,0,0,1,0-1.542l5.952-5.9-5.952-5.906a1.09,1.09,0,0,1,0-1.542l3.593-3.593a1.09,1.09,0,0,1,1.542,0l5.9,5.961,5.906-5.952a1.09,1.09,0,0,1,1.542,0l3.593,3.593a1.09,1.09,0,0,1,0,1.542l-5.961,5.9Z" transform="translate(-8 -8)" fill="#fff"/>
</svg>
