<svg xmlns="http://www.w3.org/2000/svg" width="30" height="30" viewBox="0 0 30 30">
  <g id="グループ_37" data-name="グループ 37" transform="translate(-897 -6304)">
    <g id="icons8-javascript" transform="translate(891 6298)">
      <path id="パス_36" data-name="パス 36" d="M6,36V6H36V36Z" fill="#ffd600"/>
      <path id="パス_37" data-name="パス 37" d="M27.2,31.145c.578.939,1.206,1.839,2.537,1.839,1.118,0,1.7-.556,1.7-1.324,0-.92-.606-1.246-1.836-1.782l-.674-.287c-1.946-.825-3.24-1.86-3.24-4.044,0-2.013,1.541-3.545,3.95-3.545a3.99,3.99,0,0,1,3.836,2.149l-2.1,1.342a1.834,1.834,0,0,0-1.736-1.15,1.171,1.171,0,0,0-1.291,1.15c0,.805.5,1.131,1.658,1.63l.674.287c2.293.977,3.586,1.974,3.586,4.216,0,2.416-1.908,3.74-4.469,3.74a4.929,4.929,0,0,1-4.72-2.814Zm-9.679.069a2.281,2.281,0,0,0,1.989,1.339c.884,0,1.393-.349,1.393-1.707V22h2.784v9.274c0,2.813-1.632,4.093-4.014,4.093a4.886,4.886,0,0,1-4.34-2.814Z" transform="translate(-1.61 -2.708)" fill="#000001"/>
    </g>
  </g>
</svg>
