<svg xmlns="http://www.w3.org/2000/svg" width="30" height="30" viewBox="0 0 30 30">
  <g id="グループ_36" data-name="グループ 36" transform="translate(-812 -6306)">
    <g id="icons8-adobe-photoshop" transform="translate(806 6300)">
      <path id="パス_38" data-name="パス 38" d="M6,9.333A3.333,3.333,0,0,1,9.333,6H32.667A3.333,3.333,0,0,1,36,9.333V32.667A3.333,3.333,0,0,1,32.667,36H9.333A3.333,3.333,0,0,1,6,32.667Z" fill="#03a9f4"/>
      <path id="パス_39" data-name="パス 39" d="M19.681,19.174H18.014v3.691h1.642a1.3,1.3,0,0,0,1.057-.447,1.978,1.978,0,0,0,.374-1.3,2.345,2.345,0,0,0-.382-1.41A1.227,1.227,0,0,0,19.681,19.174Z" transform="translate(-2.001 -2.194)" fill="#020f16"/>
      <path id="パス_40" data-name="パス 40" d="M9,9V34.005H34.005V9ZM20.973,22.16a3.922,3.922,0,0,1-2.865,1.009h-1.6v4.168H14.12V15.485h4.037a3.7,3.7,0,0,1,2.8,1.091,3.924,3.924,0,0,1,1.046,2.832A3.67,3.67,0,0,1,20.973,22.16Zm7.766,4.623a3.591,3.591,0,0,1-2.328.716,3.7,3.7,0,0,1-1.71-.378,2.877,2.877,0,0,1-1.16-1.054,2.715,2.715,0,0,1-.419-1.457h2.19a1.4,1.4,0,0,0,.281.9,1.1,1.1,0,0,0,.867.3q.928,0,.928-.839a.717.717,0,0,0-.281-.541,5.577,5.577,0,0,0-1.249-.671,5.19,5.19,0,0,1-1.958-1.2,2.273,2.273,0,0,1-.533-1.539A2.459,2.459,0,0,1,24.2,19.12a3.174,3.174,0,0,1,2.21-.753,3.441,3.441,0,0,1,2.32.748,2.515,2.515,0,0,1,.871,2.01H27.3q0-1.074-.9-1.074a.8.8,0,0,0-.839.863.666.666,0,0,0,.261.517,5.716,5.716,0,0,0,1.229.639,5.09,5.09,0,0,1,1.99,1.16,2.363,2.363,0,0,1,.582,1.656A2.317,2.317,0,0,1,28.739,26.784Z" transform="translate(-0.503 -0.503)" fill="#020f16"/>
    </g>
  </g>
</svg>
