<svg xmlns="http://www.w3.org/2000/svg" width="35" height="25.001" viewBox="0 0 35 25.001">
  <g id="ノートPCのアイコン素材" transform="translate(0 -85.437)">
    <path id="パス_58" data-name="パス 58" d="M40.587,107.562H67.043a1.7,1.7,0,0,0,1.618-1.755V87.192a1.7,1.7,0,0,0-1.618-1.755H40.587a1.7,1.7,0,0,0-1.618,1.755v18.615A1.7,1.7,0,0,0,40.587,107.562Zm.486-19.844H66.558v17.56H41.073Z" transform="translate(-36.094 0)" fill="#5d5d5d"/>
    <path id="パス_59" data-name="パス 59" d="M0,401.375v.443a1.37,1.37,0,0,0,1.312,1.415H33.688A1.37,1.37,0,0,0,35,401.818v-.443Z" transform="translate(0 -292.796)" fill="#5d5d5d"/>
  </g>
</svg>
