<svg xmlns="http://www.w3.org/2000/svg" width="125" height="85" viewBox="0 0 125 85">
  <g id="CMSアイコン" transform="translate(-781.5 -1641.624)">
    <g id="PCでのログイン画面のアイコン素材" transform="translate(781.5 1641.624)">
      <path id="パス_14" data-name="パス 14" d="M188.576,132.082a15.487,15.487,0,1,0-11.06-4.649A15.391,15.391,0,0,0,188.576,132.082Zm-9.186-6.148A64.481,64.481,0,0,1,185.5,122.5h.135v-2.78a1.98,1.98,0,0,1-.717-1.031,4.908,4.908,0,0,1-.23-.907c0-.01,0-.028,0-.037h-.005c0-.008,0-.023,0-.029-1.061.345-1.211-1.644-1.271-2.137a1.28,1.28,0,0,1,.008-.286c0-.018,0-.037.007-.055a1.079,1.079,0,0,1,.167-.417c.006-.007.011-.017.017-.024a.753.753,0,0,1,.1-.114c-.03-.074-.075-.194-.12-.314a6.473,6.473,0,0,1-.194-1.435,4.7,4.7,0,0,1,.852-2.406c.807-1.495,2.87-2.915,4.066-2.9h.269a3.278,3.278,0,0,1,2.84,1.914,3.049,3.049,0,0,1,1.51.987,5.465,5.465,0,0,1,.523.583,3.245,3.245,0,0,1,.344,1.973,5.556,5.556,0,0,1-.224,1.285,2.519,2.519,0,0,1-.105.314,1.034,1.034,0,0,1,.284.9c-.044.493-.194,2.482-1.255,2.137v.015c-.044.344-.224,1.569-.957,1.988v2.78h.135a61.48,61.48,0,0,1,5.55,3.09c.187.118.376.235.558.352a13.051,13.051,0,0,1-17.79.537C179.786,126.3,179.582,126.127,179.39,125.934Z" transform="translate(-141.741 -87.025)" fill="#2e80cb"/>
      <path id="パス_15" data-name="パス 15" d="M86.362,22.654H7.319A7.3,7.3,0,0,0,0,29.939V85.308a7.3,7.3,0,0,0,7.319,7.285H39.994v5.665a4.859,4.859,0,0,1-4.48,4.834l-13.68,1.1a.73.73,0,0,0-.673.726v2.008a.73.73,0,0,0,.731.728h49.9a.73.73,0,0,0,.732-.728v-2.008a.73.73,0,0,0-.673-.726l-13.68-1.1a4.86,4.86,0,0,1-4.48-4.834V92.593H86.362a7.3,7.3,0,0,0,7.319-7.285V29.939A7.3,7.3,0,0,0,86.362,22.654Zm0,7.285V85.308H7.319V29.939H86.362Z" transform="translate(0 -22.654)" fill="#2e80cb"/>
      <path id="パス_16" data-name="パス 16" d="M167.844,293.861v.03h19.894v-5.979H167.844v5.949Zm18.4-4.454V292.4h-16.9v-2.989h16.9Z" transform="translate(-137.304 -239.691)" fill="#2e80cb"/>
      <path id="パス_17" data-name="パス 17" d="M294.461,293.842v.018h0v.03h9.285v-5.979h-9.285Z" transform="translate(-240.706 -239.691)" fill="#2e80cb"/>
    </g>
    <rect id="長方形_2" data-name="長方形 2" width="43.797" height="41.143" transform="translate(849.53 1671.773)" fill="#fff"/>
    <g id="設定ツールの無料アイコン_9" data-name="設定ツールの無料アイコン 9" transform="translate(849.989 1672.462)">
      <path id="パス_18" data-name="パス 18" d="M206.463,200.472a5.99,5.99,0,1,0,5.99,5.99A6,6,0,0,0,206.463,200.472Z" transform="translate(-178.846 -180.366)" fill="#2e80cb"/>
      <path id="パス_19" data-name="パス 19" d="M53.319,34.352,48.71,34.07a2.039,2.039,0,0,1-1.776-1.311,20.684,20.684,0,0,0-3.228-5.567,2.051,2.051,0,0,1-.239-2.185l2.058-4.13a2.033,2.033,0,0,0-.8-2.692l-6.6-3.805a2.045,2.045,0,0,0-2.734.634L32.84,18.877a2.033,2.033,0,0,1-2.015.888,20.07,20.07,0,0,0-3.214-.254,20.337,20.337,0,0,0-3.214.254,2.033,2.033,0,0,1-2.015-.888l-2.551-3.862a2.025,2.025,0,0,0-2.72-.634L10.5,18.186a2.06,2.06,0,0,0-.8,2.692l2.058,4.13a2,2,0,0,1-.24,2.185A20.649,20.649,0,0,0,8.3,32.76,2.056,2.056,0,0,1,6.526,34.07l-4.609.282A2.04,2.04,0,0,0,0,36.4v7.611a2.051,2.051,0,0,0,1.917,2.044l4.609.282a2.064,2.064,0,0,1,1.776,1.3A20.636,20.636,0,0,0,11.515,53.2a2.019,2.019,0,0,1,.24,2.2L9.7,59.525a2.063,2.063,0,0,0,.8,2.692l6.61,3.806a2.042,2.042,0,0,0,2.72-.649l2.551-3.848a2.033,2.033,0,0,1,2.015-.888,20.286,20.286,0,0,0,3.214.254,20.022,20.022,0,0,0,3.214-.254,2.033,2.033,0,0,1,2.015.888l2.551,3.848a2.062,2.062,0,0,0,2.734.649l6.6-3.806a2.037,2.037,0,0,0,.8-2.692L43.467,55.4a2.076,2.076,0,0,1,.239-2.2,20.67,20.67,0,0,0,3.228-5.567,2.047,2.047,0,0,1,1.776-1.3l4.609-.282a2.051,2.051,0,0,0,1.917-2.044V36.4A2.041,2.041,0,0,0,53.319,34.352ZM40.084,40.2a12.466,12.466,0,1,1-12.473-12.46A12.466,12.466,0,0,1,40.084,40.2Z" transform="translate(0 -14.1)" fill="#2e80cb"/>
    </g>
    <g id="設定の歯車アイコン素材_5" data-name="設定の歯車アイコン素材 5" transform="translate(879.13 1646.499)">
      <path id="パス_20" data-name="パス 20" d="M201.1,198a3.1,3.1,0,1,0,3.1,3.1A3.1,3.1,0,0,0,201.1,198Z" transform="translate(-187.419 -188.228)" fill="#2e80cb"/>
      <path id="パス_21" data-name="パス 21" d="M26.035,24.955l-2.256-.226a1.5,1.5,0,0,1-1.2-.86,9.825,9.825,0,0,0-.8-1.391,1.5,1.5,0,0,1-.147-1.47l.932-2.068a1.484,1.484,0,0,0-.611-1.894L19.1,15.4a1.483,1.483,0,0,0-1.946.418l-1.311,1.822a1.5,1.5,0,0,1-1.336.631q-.409-.035-.827-.035t-.827.035a1.5,1.5,0,0,1-1.336-.631L10.212,15.82A1.483,1.483,0,0,0,8.266,15.4L5.419,17.045a1.484,1.484,0,0,0-.611,1.894l.932,2.068a1.5,1.5,0,0,1-.146,1.47,9.807,9.807,0,0,0-.8,1.391,1.5,1.5,0,0,1-1.2.86l-2.256.226A1.484,1.484,0,0,0,0,26.431v3.288a1.483,1.483,0,0,0,1.335,1.476l2.256.226a1.5,1.5,0,0,1,1.2.86,9.829,9.829,0,0,0,.8,1.392,1.5,1.5,0,0,1,.146,1.471l-.932,2.068A1.483,1.483,0,0,0,5.419,39.1l2.847,1.644a1.483,1.483,0,0,0,1.946-.418l1.311-1.821a1.5,1.5,0,0,1,1.336-.631c.273.023.548.036.827.036s.554-.013.827-.036a1.5,1.5,0,0,1,1.336.631l1.311,1.821a1.483,1.483,0,0,0,1.946.418L21.951,39.1a1.483,1.483,0,0,0,.611-1.894l-.932-2.068a1.5,1.5,0,0,1,.146-1.471,9.832,9.832,0,0,0,.8-1.392,1.5,1.5,0,0,1,1.2-.86l2.256-.226a1.483,1.483,0,0,0,1.335-1.476V26.431A1.483,1.483,0,0,0,26.035,24.955ZM18.5,28.075a4.811,4.811,0,1,1-4.811-4.811A4.817,4.817,0,0,1,18.5,28.075Z" transform="translate(0 -15.203)" fill="#2e80cb"/>
    </g>
  </g>
</svg>
