<svg xmlns="http://www.w3.org/2000/svg" width="90" height="85" viewBox="0 0 90 85">
  <path id="iconmonstr-construction-22" d="M90,86H15A15.238,15.238,0,0,1,0,70.545V9.91C1.174,5.772,4.819,1,11.25,1A11.325,11.325,0,0,1,22.481,9.933l.019,6.522H90ZM82.5,24.182h-60v42.5a8.548,8.548,0,0,0-7.207-3.864A7.868,7.868,0,0,0,7.5,70.545,7.619,7.619,0,0,0,15,78.273H82.5ZM75,70.545H30V31.909H75ZM45,35.773H33.75V66.682h37.5V51.227h-7.5V62.818H60V51.227H48.75V62.818H45ZM15,11.281c-.874-3.558-6.776-3.543-7.5,0V57.633c1.53-1.627,5.186-2.8,7.5-2.542V11.281ZM48.75,35.773V47.364h22.5V35.773Z" transform="translate(0 -1)" fill="#2e80cb" fill-rule="evenodd"/>
</svg>
