<svg xmlns="http://www.w3.org/2000/svg" width="190" height="130" viewBox="0 0 190 130">
  <g id="CMSアイコン" transform="translate(-781.5 -1641.624)">
    <g id="PCでのログイン画面のアイコン素材" transform="translate(781.5 1641.624)">
      <path id="パス_14" data-name="パス 14" d="M196.425,147.782a23.338,23.338,0,1,0-16.667-7.006A23.193,23.193,0,0,0,196.425,147.782Zm-13.842-9.265a97.162,97.162,0,0,1,9.2-5.173h.2v-4.189a2.984,2.984,0,0,1-1.081-1.554,7.4,7.4,0,0,1-.346-1.366c0-.015,0-.043,0-.056h-.008c0-.012-.006-.034-.007-.044-1.6.519-1.824-2.477-1.915-3.22a1.929,1.929,0,0,1,.012-.431c0-.028.005-.056.011-.084a1.626,1.626,0,0,1,.252-.629c.009-.011.016-.025.025-.036a1.134,1.134,0,0,1,.151-.172c-.045-.112-.113-.293-.18-.473a9.754,9.754,0,0,1-.293-2.162,7.079,7.079,0,0,1,1.283-3.626c1.216-2.252,4.324-4.393,6.127-4.37h.4a4.939,4.939,0,0,1,4.279,2.884,4.6,4.6,0,0,1,2.275,1.487,8.232,8.232,0,0,1,.788.878,4.89,4.89,0,0,1,.518,2.974,8.374,8.374,0,0,1-.338,1.937,3.79,3.79,0,0,1-.158.473,1.558,1.558,0,0,1,.428,1.352c-.067.744-.293,3.74-1.892,3.22v.023c-.067.518-.338,2.365-1.442,3v4.189h.2A92.645,92.645,0,0,1,209.452,138c.282.177.567.354.84.53a19.667,19.667,0,0,1-26.809.809C183.18,139.071,182.872,138.808,182.583,138.517Z" transform="translate(-125.032 -79.386)" fill="#5d5d5d"/>
      <path id="パス_15" data-name="パス 15" d="M131.647,22.654H11.157A11.15,11.15,0,0,0,0,33.8v84.681A11.149,11.149,0,0,0,11.157,129.62H60.965v8.664a7.422,7.422,0,0,1-6.829,7.394l-20.853,1.682a1.115,1.115,0,0,0-1.025,1.11v3.072a1.114,1.114,0,0,0,1.115,1.113h76.059a1.114,1.114,0,0,0,1.116-1.113v-3.072a1.115,1.115,0,0,0-1.025-1.11l-20.853-1.682a7.422,7.422,0,0,1-6.829-7.394V129.62h49.808A11.148,11.148,0,0,0,142.8,118.478V33.8A11.149,11.149,0,0,0,131.647,22.654Zm0,11.142v84.681H11.157V33.8H131.647Z" transform="translate(0 -22.654)" fill="#5d5d5d"/>
      <path id="パス_16" data-name="パス 16" d="M167.844,296.877v.045h29.979v-9.01H167.844v8.965Zm27.727-6.712v4.5H170.1v-4.5h25.475Z" transform="translate(-121.146 -214.081)" fill="#5d5d5d"/>
      <path id="パス_17" data-name="パス 17" d="M294.461,296.849v.028h0v.045h13.992v-9.01H294.461Z" transform="translate(-212.415 -214.081)" fill="#5d5d5d"/>
    </g>
    <rect id="長方形_2" data-name="長方形 2" width="66" height="62" transform="translate(885.65 1688.37)" fill="#fff"/>
    <g id="設定ツールの無料アイコン_9" data-name="設定ツールの無料アイコン 9" transform="translate(886.341 1690.005)">
      <path id="パス_18" data-name="パス 18" d="M209.5,200.472a9.027,9.027,0,1,0,9.026,9.027A9.038,9.038,0,0,0,209.5,200.472Z" transform="translate(-167.882 -170.173)" fill="#5d5d5d"/>
      <path id="パス_19" data-name="パス 19" d="M80.348,44.619,73.4,44.194a3.073,3.073,0,0,1-2.677-1.975,31.17,31.17,0,0,0-4.864-8.39,3.091,3.091,0,0,1-.361-3.292l3.1-6.223a3.064,3.064,0,0,0-1.211-4.057l-9.94-5.735a3.081,3.081,0,0,0-4.12.956L49.487,21.3a3.063,3.063,0,0,1-3.037,1.338,30.244,30.244,0,0,0-4.843-.382,30.646,30.646,0,0,0-4.843.382A3.063,3.063,0,0,1,33.728,21.3l-3.844-5.82a3.051,3.051,0,0,0-4.1-.956l-9.961,5.735a3.1,3.1,0,0,0-1.211,4.057l3.1,6.223a3.007,3.007,0,0,1-.361,3.292,31.117,31.117,0,0,0-4.842,8.39,3.1,3.1,0,0,1-2.676,1.975l-6.945.425A3.075,3.075,0,0,0,0,47.7V59.168a3.09,3.09,0,0,0,2.888,3.08l6.945.425a3.11,3.11,0,0,1,2.676,1.953,31.1,31.1,0,0,0,4.842,8.39,3.042,3.042,0,0,1,.361,3.314l-3.1,6.223a3.109,3.109,0,0,0,1.211,4.057l9.961,5.735a3.077,3.077,0,0,0,4.1-.977l3.844-5.8a3.064,3.064,0,0,1,3.037-1.339,30.569,30.569,0,0,0,4.843.382,30.171,30.171,0,0,0,4.843-.382,3.064,3.064,0,0,1,3.037,1.339l3.844,5.8a3.108,3.108,0,0,0,4.12.977l9.94-5.735A3.069,3.069,0,0,0,68.6,82.553L65.5,76.33a3.128,3.128,0,0,1,.361-3.314,31.149,31.149,0,0,0,4.864-8.39A3.085,3.085,0,0,1,73.4,62.673l6.945-.425a3.091,3.091,0,0,0,2.889-3.08V47.7A3.075,3.075,0,0,0,80.348,44.619ZM60.4,53.434a18.786,18.786,0,1,1-18.8-18.776A18.786,18.786,0,0,1,60.4,53.434Z" transform="translate(0 -14.1)" fill="#5d5d5d"/>
    </g>
    <g id="設定の歯車アイコン素材_5" data-name="設定の歯車アイコン素材 5" transform="translate(930.255 1648.97)">
      <path id="パス_20" data-name="パス 20" d="M202.676,198a4.672,4.672,0,1,0,4.672,4.672A4.678,4.678,0,0,0,202.676,198Z" transform="translate(-182.053 -183.274)" fill="#5d5d5d"/>
      <path id="パス_21" data-name="パス 21" d="M39.233,29.9l-3.4-.341a2.256,2.256,0,0,1-1.807-1.3,14.805,14.805,0,0,0-1.211-2.1,2.257,2.257,0,0,1-.221-2.216L34,20.834a2.236,2.236,0,0,0-.92-2.855L28.789,15.5a2.235,2.235,0,0,0-2.932.631l-1.975,2.745a2.26,2.26,0,0,1-2.013.951q-.616-.053-1.246-.053t-1.246.053a2.261,2.261,0,0,1-2.013-.951l-1.975-2.745a2.235,2.235,0,0,0-2.932-.631l-4.29,2.477a2.236,2.236,0,0,0-.92,2.855l1.4,3.116a2.258,2.258,0,0,1-.221,2.216,14.778,14.778,0,0,0-1.211,2.1,2.255,2.255,0,0,1-1.807,1.3l-3.4.341A2.236,2.236,0,0,0,0,32.123v4.954A2.235,2.235,0,0,0,2.012,39.3l3.4.341a2.255,2.255,0,0,1,1.807,1.3,14.812,14.812,0,0,0,1.211,2.1,2.258,2.258,0,0,1,.221,2.216l-1.4,3.116a2.235,2.235,0,0,0,.92,2.854l4.29,2.477a2.235,2.235,0,0,0,2.932-.631l1.975-2.745a2.26,2.26,0,0,1,2.013-.951c.411.035.826.053,1.246.053s.835-.019,1.246-.053a2.259,2.259,0,0,1,2.013.951l1.975,2.745a2.235,2.235,0,0,0,2.932.631l4.291-2.477A2.235,2.235,0,0,0,34,48.368l-1.4-3.116a2.258,2.258,0,0,1,.221-2.216,14.817,14.817,0,0,0,1.211-2.1,2.255,2.255,0,0,1,1.807-1.3l3.4-.341a2.235,2.235,0,0,0,2.012-2.224V32.123A2.236,2.236,0,0,0,39.233,29.9Zm-11.36,4.7a7.25,7.25,0,1,1-7.25-7.25A7.258,7.258,0,0,1,27.873,34.6Z" transform="translate(0 -15.203)" fill="#5d5d5d"/>
    </g>
  </g>
</svg>
