<svg xmlns="http://www.w3.org/2000/svg" width="30" height="30" viewBox="0 0 30 30">
  <g id="グループ_39" data-name="グループ 39" transform="translate(-852 -6304)">
    <g id="icons8-adobe-xd" transform="translate(846 6298)">
      <path id="パス_41" data-name="パス 41" d="M6,9.333A3.333,3.333,0,0,1,9.333,6H32.667A3.333,3.333,0,0,1,36,9.333V32.667A3.333,3.333,0,0,1,32.667,36H9.333A3.333,3.333,0,0,1,6,32.667Z" fill="#ff41c8"/>
      <path id="パス_42" data-name="パス 42" d="M9,9V33.993H33.993V9Zm8.408,10.576L19,15.508h2.742l-2.782,5.874,2.847,5.972H19.035l-1.627-4.141L15.79,27.354H13.015l2.847-5.972-2.791-5.874h2.742Zm4.979,3.108a5.747,5.747,0,0,1,.732-3.23,2.423,2.423,0,0,1,2.132-1.066,2.056,2.056,0,0,1,1.692.879v-4.41h2.318v12.5H27.17l-.106-.895a2.12,2.12,0,0,1-1.823,1.058,2.4,2.4,0,0,1-2.111-1.058,5.56,5.56,0,0,1-.745-3.107v-.668Zm2.311.577a4.192,4.192,0,0,0,.277,1.819.976.976,0,0,0,.936.517,1.122,1.122,0,0,0,1.033-.61V20.968a1.1,1.1,0,0,0-1.025-.651.99.99,0,0,0-.927.512,3.994,3.994,0,0,0-.293,1.823Z" transform="translate(-0.496 -0.496)" fill="#16020b"/>
    </g>
  </g>
</svg>
