<svg xmlns="http://www.w3.org/2000/svg" width="55" height="30" viewBox="0 0 55 30">
  <g id="グループ_40" data-name="グループ 40" transform="translate(-863 -6304)">
    <path id="php-brands" d="M27.5,89.2c14.73,0,26.056,6.435,26.056,13.5S42.221,116.2,27.5,116.2,1.444,109.768,1.444,102.7,12.779,89.2,27.5,89.2m0-1.5C12.315,87.7,0,94.411,0,102.7s12.315,15,27.5,15,27.5-6.711,27.5-15S42.685,87.7,27.5,87.7Zm-8.748,13.8c-.679,3.61-3.077,3.235-6.024,3.235L13.9,98.44c3.266,0,5.483-.365,4.847,3.057ZM8.37,111.1h3.154l.748-3.993c3.532,0,5.723.267,7.752-1.7,2.243-2.139,2.827-5.945,1.229-7.852a4.93,4.93,0,0,0-4-1.488H11.18ZM24.329,92.067h3.137l-.748,3.993c2.707,0,5.216-.2,6.428.954,1.272,1.212.662,2.763-.713,10.08h-3.18c1.323-7.077,1.573-7.665,1.091-8.2-.464-.517-1.521-.41-4.073-.41l-1.616,8.61H21.519l2.81-15.027ZM43.4,101.5c-.687,3.663-3.154,3.235-6.024,3.235l1.177-6.292C41.834,98.44,44.034,98.074,43.4,101.5ZM33.017,111.1H36.18l.748-3.993c3.712,0,5.766.223,7.752-1.7,2.243-2.139,2.827-5.945,1.229-7.852a4.93,4.93,0,0,0-4-1.488H35.836Z" transform="translate(863 6216.3)" fill="#333"/>
  </g>
</svg>
