<svg xmlns="http://www.w3.org/2000/svg" width="30" height="30" viewBox="0 0 30 30">
  <g id="グループ_38" data-name="グループ 38" transform="translate(-631 -6306)">
    <g id="icons8-ワードプレス" transform="translate(627 6302)">
      <path id="パス_43" data-name="パス 43" d="M19.012,4.05A14.962,14.962,0,1,0,33.975,19.012,14.962,14.962,0,0,0,19.012,4.05Z" transform="translate(-0.012 -0.012)" fill="#fff"/>
      <path id="パス_44" data-name="パス 44" d="M8,19.995a11.994,11.994,0,0,0,6.761,10.8L9.039,15.113A11.951,11.951,0,0,0,8,19.995Zm20.094-.6a6.3,6.3,0,0,0-1.252-3.308,5.647,5.647,0,0,1-1.181-2.813,2.32,2.32,0,0,1,2.28-2.129c.053,0,.1,0,.154.006A11.993,11.993,0,0,0,10.211,13.06a1.193,1.193,0,0,0,.458.029c1.251,0,3.2-.15,3.2-.15a.5.5,0,0,1,.074.987s-.648.079-1.37.114l4.446,13.328,2.624-7.872-1.951-5.434c-.645-.034-1.259-.114-1.259-.114a.5.5,0,0,1,.073-.987s1.985.15,3.161.15c1.256,0,3.2-.15,3.2-.15a.5.5,0,0,1,.078.987s-.652.079-1.373.114l4.416,13.2,1.2-3.993A11.122,11.122,0,0,0,28.095,19.391Zm-7.889,1.651-3.6,10.46A11.884,11.884,0,0,0,20,31.99a12.05,12.05,0,0,0,3.985-.68,1.73,1.73,0,0,1-.088-.165Zm10.317-6.806a8.958,8.958,0,0,1,.081,1.233,11.346,11.346,0,0,1-.914,4.3l-3.662,10.6a12.013,12.013,0,0,0,4.5-16.131Z" transform="translate(-0.995 -0.995)" fill="#01579b"/>
      <path id="パス_45" data-name="パス 45" d="M4,19A15,15,0,1,0,19,4,15.018,15.018,0,0,0,4,19Zm1.5,0A13.5,13.5,0,1,1,19,32.5,13.516,13.516,0,0,1,5.5,19Z" fill="#01579b"/>
    </g>
  </g>
</svg>
