<svg id="レイヤー_1" data-name="レイヤー 1" xmlns="http://www.w3.org/2000/svg" width="73.87mm" height="55.2mm" viewBox="0 0 209.41 156.48">
  <g>
    <g>
      <g>
        <text transform="translate(1.98 131.84)" style="font-size: 25px;fill: #1b3060;font-family: NotoSerif-Bold, Noto Serif;font-weight: 700;letter-spacing: -0.01470703125em">K<tspan x="17.98" y="0" style="letter-spacing: -0.0066015625em">O</tspan><tspan x="37.49" y="0" style="letter-spacing: 0.05169921875em">K</tspan><tspan x="57.13" y="0" style="letter-spacing: -0.01619140625em">Y</tspan><tspan x="74.05" y="0" style="letter-spacing: 0.015em">O</tspan></text>
        <text transform="translate(108.28 132.32)" style="font-size: 25px;fill: #1b3060;font-family: NotoSerif-Bold, Noto Serif;font-weight: 700;letter-spacing: -0.007109375em">D<tspan x="19" y="0" style="letter-spacing: 0.03431640625em">E</tspan><tspan x="36.18" y="0" style="letter-spacing: 0.00619140625em">S</tspan><tspan x="50.98" y="0" style="letter-spacing: -0.0066015625em">I</tspan><tspan x="60.84" y="0" style="letter-spacing: 0.00060546875em">G</tspan><tspan x="80.08" y="0" style="letter-spacing: 0.015em">N</tspan></text>
      </g>
      <text transform="translate(69.11 151.82)" style="font-size: 12px;fill: #5c6973;font-family: NotoSerif-Regular, Noto Serif;letter-spacing: -0.00008138020833333333em">R<tspan x="7.87" y="0" style="letter-spacing: -0.0101318359375em">Y</tspan><tspan x="15.25" y="0" style="letter-spacing: 0.0150146484375em">O </tspan><tspan x="27.63" y="0" style="letter-spacing: 0.004475911458333333em">S</tspan><tspan x="34.22" y="0" style="letter-spacing: 0.029012044270833332em">E</tspan><tspan x="42.04" y="0" style="letter-spacing: 0.0579833984375em">K</tspan><tspan x="51.13" y="0" style="letter-spacing: 0.055013020833333336em">I</tspan><tspan x="56.2" y="0" style="letter-spacing: -0.006103515625em">Y</tspan><tspan x="63.63" y="0" style="letter-spacing: 0.0150146484375em">A</tspan></text>
    </g>
    <g>
      <path d="M142.53,46.84A81.43,81.43,0,0,0,114,0c8.87,16.54,5.36,37.8-5.22,53.31s-27.15,26-44.41,33.37A184.18,184.18,0,0,1,0,101.25c20.51,1,41-.37,60.65-6.18,29.42-8.72,56.68-28.78,68-57.3a84,84,0,0,1,5.86,63.33A81.43,81.43,0,0,0,142.53,46.84Z" style="fill: #172a88"/>
      <path d="M176.86,52.47A81.46,81.46,0,0,0,148.33,5.62c7.26,13.55,6.22,30.25-.2,44.38a80.94,80.94,0,0,1,.92,16.46A84.13,84.13,0,0,0,163,43.39a84,84,0,0,1,5.86,63.33A81.4,81.4,0,0,0,176.86,52.47Z" style="fill: #036eb8"/>
      <path d="M207.64,52.47A81.42,81.42,0,0,0,179.1,5.62c6.74,12.56,6.33,27.82,1.13,41.23.52,1.85,1,3.73,1.36,5.62a77.16,77.16,0,0,1,1.37,10,82.68,82.68,0,0,0,10.79-19.12,84,84,0,0,1,5.86,63.33A81.46,81.46,0,0,0,207.64,52.47Z" style="fill: #2ea7e0"/>
    </g>
  </g>
</svg>
