<svg xmlns="http://www.w3.org/2000/svg" width="32" height="25" viewBox="0 0 32 25">
  <g id="メールのアイコンその9" transform="translate(0 -56.188)">
    <path id="パス_57" data-name="パス 57" d="M31.922,59.577a4.2,4.2,0,0,0-.87-1.843,3.546,3.546,0,0,0-.283-.313A4.214,4.214,0,0,0,27.8,56.188H4.2a4.172,4.172,0,0,0-2.971,1.233,3.691,3.691,0,0,0-.286.317,4.155,4.155,0,0,0-.864,1.841A4.068,4.068,0,0,0,0,60.395V76.981a4.231,4.231,0,0,0,1.231,2.974c.095.094.189.181.289.266a4.211,4.211,0,0,0,2.682.967H27.8a4.179,4.179,0,0,0,2.685-.973,3.643,3.643,0,0,0,.286-.259,4.183,4.183,0,0,0,.86-1.242l.027-.066A4.151,4.151,0,0,0,32,76.982V60.395A4.314,4.314,0,0,0,31.922,59.577Zm-29.745-.7a1.979,1.979,0,0,1,.232-.274A2.521,2.521,0,0,1,4.2,57.853H27.8a2.5,2.5,0,0,1,1.795.746,2.536,2.536,0,0,1,.229.267l.18.243L17.408,70.1a2.139,2.139,0,0,1-2.814,0L2.012,59.113Zm-.5,18.255a1,1,0,0,1-.008-.146V60.738l9.773,8.534L1.762,77.715Zm27.384,2.06a2.52,2.52,0,0,1-1.259.334H4.2a2.518,2.518,0,0,1-1.259-.334l-.4-.229,10-8.719,1.1.954a3.592,3.592,0,0,0,4.724,0l1.1-.954,9.993,8.72Zm1.28-2.206a1.052,1.052,0,0,1-.007.144l-.087.593-9.679-8.442,9.773-8.534Z" transform="translate(0 0)" fill="#5d5d5d"/>
  </g>
</svg>
