<svg xmlns="http://www.w3.org/2000/svg" width="17" height="25" viewBox="0 0 17 25">
  <g id="電球アイコン13" transform="translate(-83.785)">
    <path id="パス_56" data-name="パス 56" d="M100.785,8.409A8.339,8.339,0,0,0,98.3,2.463a8.564,8.564,0,0,0-12.02,0,8.332,8.332,0,0,0-1.317,10.2h0l0,0,.005.009h0a14.781,14.781,0,0,0,1.922,2.385,6.278,6.278,0,0,1,.74.977,1.783,1.783,0,0,1,.272.856v4.659a2.617,2.617,0,0,0,2.631,2.6h.377a1.548,1.548,0,0,0,2.753,0h.377a2.617,2.617,0,0,0,2.631-2.6V16.9h0a1.783,1.783,0,0,1,.272-.856,9.494,9.494,0,0,1,1.222-1.509A10.532,10.532,0,0,0,99.6,12.679h0l0-.008,0-.006h0A8.282,8.282,0,0,0,100.785,8.409ZM95.04,22.547a1.417,1.417,0,0,1-1,.411H90.531a1.417,1.417,0,0,1-1-.411,1.387,1.387,0,0,1-.415-.991V21.3l5.929,1.247Zm.415-.991a1.4,1.4,0,0,1-.025.25l-6.316-1.328V18.841l6.341,1.334Zm0-2.2-6.341-1.334v-.536h6.341Zm3.1-7.288-.005.008,0,.005a13.89,13.89,0,0,1-1.785,2.193,7.378,7.378,0,0,0-.882,1.174,3.354,3.354,0,0,0-.342.836H89.027a3.334,3.334,0,0,0-.343-.836,10.448,10.448,0,0,0-1.377-1.721,9.381,9.381,0,0,1-1.289-1.645l0-.006,0-.007a7.143,7.143,0,0,1,1.124-8.755,7.341,7.341,0,0,1,10.3,0,7.143,7.143,0,0,1,1.124,8.755Z" transform="translate(0 0)" fill="#5d5d5d"/>
  </g>
</svg>
