<svg xmlns="http://www.w3.org/2000/svg" width="100" height="85" viewBox="0 0 100 85">
  <path id="iconmonstr-keyboard-6" d="M91.667,36V78.5H8.333V36ZM100,27.5H0V87H100ZM25,40.25H12.5v8.5H25Zm12.5,0H29.167v8.5H37.5Zm12.5,0H41.667v8.5H50Zm12.5,0H54.167v8.5H62.5Zm12.5,0H66.667v8.5H75Zm12.5,0H79.167v8.5H87.5ZM70.833,65.75H29.167v8.5H70.833ZM87.5,53H70.833v8.5H87.5ZM29.167,53H12.5v8.5H29.167Zm12.5,0H33.333v8.5h8.333Zm12.5,0H45.833v8.5h8.333Zm12.5,0H58.333v8.5h8.333Zm0-34L50,2,33.333,19Z" transform="translate(0 -2)" fill="#2e80cb"/>
</svg>
