<svg xmlns="http://www.w3.org/2000/svg" width="130" height="85" viewBox="0 0 130 85">
  <g id="ノートPCのイラストアイコン素材_3" data-name="ノートPCのイラストアイコン素材 3" transform="translate(0 -88.512)">
    <path id="パス_22" data-name="パス 22" d="M119.282,159.518V97.5a8.987,8.987,0,0,0-8.99-8.984H19.707a8.987,8.987,0,0,0-8.99,8.984v62.022H0v1.113a12.884,12.884,0,0,0,12.89,12.881H117.1A12.891,12.891,0,0,0,130,160.631v-1.113Zm-8.99,0H19.707V97.5h90.585v62.022ZM73.125,165.7v1.638a1.077,1.077,0,0,1-1.085,1.077H57.954a1.075,1.075,0,0,1-1.079-1.077V165.7a1.081,1.081,0,0,1,1.079-1.085H72.04A1.082,1.082,0,0,1,73.125,165.7Z" fill="#2e80cb"/>
    <path id="パス_23" data-name="パス 23" d="M127.268,194.951V176.843A18.108,18.108,0,1,0,145.35,195.48c0-.164.026-.324.026-.488h0c0-.014,0-.027,0-.041H127.268Zm0,4.879h8.99l3.3.015a13.228,13.228,0,1,1-17.167-17.191V199.83Z" transform="translate(-81.452 -65.94)" fill="#2e80cb"/>
    <path id="パス_24" data-name="パス 24" d="M282.3,188.152v3.7h0v.041h31.042v-3.736Z" transform="translate(-210.641 -74.358)" fill="#2e80cb"/>
    <path id="パス_25" data-name="パス 25" d="M282.342,226.328h-.04v3.7h0v.041h31.042v-3.736h-31Z" transform="translate(-210.641 -102.848)" fill="#2e80cb"/>
    <path id="パス_26" data-name="パス 26" d="M282.3,264.5v3.7h0v.041h25.862V264.5Z" transform="translate(-210.637 -131.337)" fill="#2e80cb"/>
    <path id="パス_27" data-name="パス 27" d="M201.136,176.864c-.119,0-.234-.019-.352-.02v0l-.041,0v12.9h0v.041h12.944A12.935,12.935,0,0,0,201.136,176.864Z" transform="translate(-149.778 -65.924)" fill="#2e80cb"/>
  </g>
</svg>
