<!--?xml version="1.0" encoding="utf-8"?-->
<!-- Generator: Adobe Illustrator 18.1.1, SVG Export Plug-In . SVG Version: 6.00 Build 0)  -->

<svg version="1.1" id="_x31_0" xmlns="http://www.w3.org/2000/svg" xmlns:xlink="http://www.w3.org/1999/xlink" x="0px" y="0px" viewBox="0 0 512 512" style="width: 256px; height: 256px; opacity: 1;" xml:space="preserve">
<style type="text/css">
	.st0{fill:#374149;}
</style>
<g>
	<path class="st0" d="M469.789,368.34V123.918c0-19.555-15.851-35.406-35.406-35.406H77.617c-19.554,0-35.406,15.851-35.406,35.406
		V368.34H0v4.387c0,28.023,22.711,50.762,50.766,50.762h410.442c28.05,0,50.793-22.738,50.793-50.762v-4.387H469.789z
		 M434.383,368.34H77.617V123.918h356.766v243.84V368.34z M288,392.688v6.457c0,2.367-1.906,4.246-4.274,4.246H228.25
		c-2.344,0-4.25-1.879-4.25-4.246v-6.457c0-2.367,1.906-4.274,4.25-4.274h55.476C286.094,388.414,288,390.32,288,392.688z" style="fill: rgb(75, 75, 75);"></path>
	<path class="st0" d="M180.422,248.105v-71.262c-39.367,0-71.262,31.894-71.262,71.262c0,39.344,31.894,71.258,71.262,71.258
		c38.645,0,70.043-30.804,71.157-69.175c0.019-0.645,0.102-1.274,0.102-1.922h-0.008c0-0.054,0.008-0.105,0.008-0.16H180.422z
		 M180.422,267.304h35.379l12.981,0.058c-7.668,19.199-26.454,32.801-48.36,32.801c-28.706,0-52.062-23.355-52.062-52.058
		c0-21.93,13.629-40.734,32.863-48.394v48.394v19.199H180.422z" style="fill: rgb(75, 75, 75);"></path>
	<polygon class="st0" points="282.305,188.152 282.305,202.648 282.301,202.695 282.305,202.695 282.305,202.856 404.465,202.856 
		404.465,188.152 	" style="fill: rgb(75, 75, 75);"></polygon>
	<polygon class="st0" points="282.461,226.328 282.461,226.328 282.305,226.328 282.305,240.824 282.301,240.871 282.305,240.871 
		282.305,241.031 404.465,241.031 404.465,226.328 282.836,226.328 	" style="fill: rgb(75, 75, 75);"></polygon>
	<polygon class="st0" points="282.305,264.504 282.305,279.004 282.301,279.047 282.305,279.047 282.305,279.207 384.082,279.207 
		384.082,264.504 	" style="fill: rgb(75, 75, 75);"></polygon>
	<path class="st0" d="M202.289,176.922c-0.469-0.016-0.922-0.074-1.386-0.078v0.008c-0.054,0-0.106-0.008-0.16-0.008v50.625v0.157
		l0,0v0.16h50.938C251.68,200.172,229.699,177.746,202.289,176.922z" style="fill: rgb(75, 75, 75);"></path>
</g>
</svg>
