<!--?xml version="1.0" encoding="utf-8"?-->
<!-- Generator: Adobe Illustrator 19.1.1, SVG Export Plug-In . SVG Version: 6.00 Build 0)  -->
<svg version="1.1" id="_x31_0" xmlns="http://www.w3.org/2000/svg" xmlns:xlink="http://www.w3.org/1999/xlink" x="0px" y="0px" viewBox="0 0 512 512" style="width: 256px; height: 256px; opacity: 1;" xml:space="preserve">
<style type="text/css">
	.st0{fill:#374149;}
</style>
<g>
	<path class="st0" d="M466.953,118.764H45.031C20.199,118.764,0,138.967,0,163.799v184.402c0,24.832,20.199,45.035,45.031,45.035
		h421.922c24.848,0,45.047-20.203,45.047-45.035V163.799C512,138.967,491.801,118.764,466.953,118.764z M51.266,259.556h75.602
		c0.351,0,0.656,0.313,0.656,0.657v27.148c0,0.355-0.305,0.656-0.656,0.656H51.266c-0.34,0-0.656-0.301-0.656-0.656v-27.148
		C50.61,259.869,50.926,259.556,51.266,259.556z M114.782,307.268c0-0.352,0.316-0.653,0.656-0.653h26.89
		c0.355,0,0.656,0.301,0.656,0.653v27.156c0,0.34-0.301,0.653-0.656,0.653h-26.89c-0.34,0-0.656-0.313-0.656-0.653V307.268z
		 M51.266,306.615h47.766c0.355,0,0.656,0.301,0.656,0.653v27.156c0,0.34-0.301,0.653-0.656,0.653H51.266
		c-0.34,0-0.656-0.313-0.656-0.653v-27.156C50.61,306.916,50.926,306.615,51.266,306.615z M126.645,191.924
		c0,0.352-0.317,0.657-0.657,0.657h-26.89c-0.351,0-0.656-0.305-0.656-0.657v-14.347c0-0.34,0.305-0.653,0.656-0.653h26.89
		c0.34,0,0.657,0.313,0.657,0.653V191.924z M174.461,191.924c0,0.352-0.312,0.657-0.652,0.657h-26.891
		c-0.355,0-0.656-0.305-0.656-0.657v-14.347c0-0.34,0.301-0.653,0.656-0.653h26.891c0.34,0,0.652,0.313,0.652,0.653V191.924z
		 M222.282,191.924c0,0.352-0.301,0.657-0.657,0.657h-26.89c-0.351,0-0.656-0.305-0.656-0.657v-14.347
		c0-0.34,0.305-0.653,0.656-0.653h26.89c0.356,0,0.657,0.313,0.657,0.653V191.924z M270.102,191.924
		c0,0.352-0.305,0.657-0.656,0.657h-26.891c-0.343,0-0.656-0.305-0.656-0.657v-14.347c0-0.34,0.313-0.653,0.656-0.653h26.891
		c0.351,0,0.656,0.313,0.656,0.653V191.924z M317.93,191.924c0,0.352-0.313,0.657-0.652,0.657h-26.891
		c-0.355,0-0.656-0.305-0.656-0.657v-14.347c0-0.34,0.301-0.653,0.656-0.653h26.891c0.339,0,0.652,0.313,0.652,0.653V191.924z
		 M365.75,191.924c0,0.352-0.313,0.657-0.657,0.657h-26.89c-0.352,0-0.653-0.305-0.653-0.657v-14.347
		c0-0.34,0.301-0.653,0.653-0.653h26.89c0.344,0,0.657,0.313,0.657,0.653V191.924z M385.367,260.213
		c0-0.344,0.301-0.657,0.656-0.657h26.891c0.351,0,0.656,0.313,0.656,0.657v27.148c0,0.355-0.305,0.656-0.656,0.656h-26.891
		c-0.355,0-0.656-0.301-0.656-0.656V260.213z M413.57,191.924c0,0.352-0.305,0.657-0.656,0.657h-26.891
		c-0.355,0-0.656-0.305-0.656-0.657v-14.347c0-0.34,0.301-0.653,0.656-0.653h26.891c0.351,0,0.656,0.313,0.656,0.653V191.924z
		 M389.446,213.166v27.152c0,0.352-0.317,0.657-0.657,0.657h-26.89c-0.355,0-0.656-0.305-0.656-0.657v-27.152
		c0-0.355,0.301-0.656,0.656-0.656h26.89C389.129,212.51,389.446,212.811,389.446,213.166z M351.938,307.268
		c0-0.352,0.301-0.653,0.652-0.653h26.891c0.339,0,0.656,0.301,0.656,0.653v27.156c0,0.34-0.317,0.653-0.656,0.653H352.59
		c-0.351,0-0.652-0.313-0.652-0.653V307.268z M337.55,260.213c0-0.344,0.301-0.657,0.653-0.657h26.89
		c0.344,0,0.657,0.313,0.657,0.657v27.148c0,0.355-0.313,0.656-0.657,0.656h-26.89c-0.352,0-0.653-0.301-0.653-0.656V260.213z
		 M341.23,213.166v27.152c0,0.352-0.301,0.657-0.652,0.657h-26.891c-0.355,0-0.656-0.305-0.656-0.657v-27.152
		c0-0.355,0.301-0.656,0.656-0.656h26.891C340.93,212.51,341.23,212.811,341.23,213.166z M202.961,307.268
		c0-0.352,0.317-0.653,0.656-0.653h131.141c0.34,0,0.653,0.301,0.653,0.653v27.156c0,0.34-0.313,0.653-0.653,0.653H203.617
		c-0.339,0-0.656-0.313-0.656-0.653V307.268z M317.93,287.361c0,0.355-0.313,0.656-0.652,0.656h-26.891
		c-0.355,0-0.656-0.301-0.656-0.656v-27.148c0-0.344,0.301-0.657,0.656-0.657h26.891c0.339,0,0.652,0.313,0.652,0.657V287.361z
		 M270.102,260.213v27.148c0,0.355-0.305,0.656-0.656,0.656h-26.891c-0.343,0-0.656-0.301-0.656-0.656v-27.148
		c0-0.344,0.313-0.657,0.656-0.657h26.891C269.797,259.556,270.102,259.869,270.102,260.213z M194.078,260.213
		c0-0.344,0.305-0.657,0.656-0.657h26.89c0.356,0,0.657,0.313,0.657,0.657v27.148c0,0.355-0.301,0.656-0.657,0.656h-26.89
		c-0.351,0-0.656-0.301-0.656-0.656V260.213z M293.019,213.166v27.152c0,0.352-0.301,0.657-0.656,0.657h-26.89
		c-0.34,0-0.653-0.305-0.653-0.657v-27.152c0-0.355,0.313-0.656,0.653-0.656h26.89C292.718,212.51,293.019,212.811,293.019,213.166z
		 M244.809,213.166v27.152c0,0.352-0.301,0.657-0.657,0.657h-26.89c-0.34,0-0.656-0.305-0.656-0.657v-27.152
		c0-0.355,0.316-0.656,0.656-0.656h26.89C244.508,212.51,244.809,212.811,244.809,213.166z M196.61,213.166v27.152
		c0,0.352-0.317,0.657-0.657,0.657h-26.89c-0.351,0-0.656-0.305-0.656-0.657v-27.152c0-0.355,0.305-0.656,0.656-0.656h26.89
		C196.293,212.51,196.61,212.811,196.61,213.166z M156.73,307.268c0-0.352,0.301-0.653,0.653-0.653h26.89
		c0.343,0,0.656,0.301,0.656,0.653v27.156c0,0.34-0.313,0.653-0.656,0.653h-26.89c-0.352,0-0.653-0.313-0.653-0.653V307.268z
		 M146.262,260.213c0-0.344,0.301-0.657,0.656-0.657h26.891c0.34,0,0.652,0.313,0.652,0.657v27.148c0,0.355-0.312,0.656-0.652,0.656
		h-26.891c-0.355,0-0.656-0.301-0.656-0.656V260.213z M148.398,213.166v27.152c0,0.352-0.305,0.657-0.656,0.657h-26.891
		c-0.351,0-0.656-0.305-0.656-0.657v-27.152c0-0.355,0.305-0.656,0.656-0.656h26.891
		C148.094,212.51,148.398,212.811,148.398,213.166z M417.782,307.268v10.262c0,0.34-0.301,0.656-0.657,0.656h-20.93
		c-0.34,0-0.652-0.316-0.652-0.656v-10.262c0-0.34,0.312-0.653,0.652-0.653h20.93C417.481,306.615,417.782,306.928,417.782,307.268z
		 M395.543,324.162c0-0.34,0.312-0.656,0.652-0.656h20.93c0.356,0,0.657,0.316,0.657,0.656v10.262c0,0.34-0.301,0.653-0.657,0.653
		h-20.93c-0.34,0-0.652-0.313-0.652-0.653V324.162z M433.187,191.924v-14.347c0-0.34,0.313-0.653,0.653-0.653h26.89
		c0.355,0,0.656,0.313,0.656,0.653v14.347c0,0.352-0.301,0.657-0.656,0.657h-26.89C433.5,192.58,433.187,192.276,433.187,191.924z
		 M461.386,213.166v27.152c0,0.352-0.312,0.657-0.656,0.657h-45.774c-0.355,0-0.656-0.305-0.656-0.657v-27.152
		c0-0.355,0.301-0.656,0.656-0.656h45.774C461.074,212.51,461.386,212.811,461.386,213.166z M433.187,307.268
		c0-0.352,0.301-0.653,0.653-0.653h26.89c0.355,0,0.656,0.301,0.656,0.653v27.156c0,0.34-0.301,0.653-0.656,0.653h-26.89
		c-0.352,0-0.653-0.313-0.653-0.653V307.268z M433.84,288.017c-0.34,0-0.653-0.301-0.653-0.656v-27.148
		c0-0.344,0.313-0.657,0.653-0.657h26.89c0.355,0,0.656,0.313,0.656,0.657v27.148c0,0.355-0.301,0.656-0.656,0.656H433.84z
		 M78.813,191.924c0,0.352-0.301,0.657-0.657,0.657h-26.89c-0.34,0-0.656-0.305-0.656-0.657v-14.347c0-0.34,0.316-0.653,0.656-0.653
		h26.89c0.356,0,0.657,0.313,0.657,0.653V191.924z M51.266,212.51h45.789c0.34,0,0.657,0.301,0.657,0.656v27.152
		c0,0.352-0.317,0.657-0.657,0.657H51.266c-0.34,0-0.656-0.305-0.656-0.657v-27.152C50.61,212.811,50.926,212.51,51.266,212.51z" style="fill: rgb(75, 75, 75);"></path>
</g>
</svg>
